<svg xmlns="http://www.w3.org/2000/svg" style="display:none">
  

  <symbol id="i-search" viewBox="0 0 24 24" fill="none" stroke="currentColor" stroke-width="1.8" stroke-linecap="round" stroke-linejoin="round"><circle cx="11" cy="11" r="7"></circle><path d="M21 21l-4.35-4.35"></path></symbol>
  <symbol id="i-card" viewBox="0 0 24 24" fill="none" stroke="currentColor" stroke-width="1.8" stroke-linecap="round" stroke-linejoin="round"><rect x="2" y="5" width="20" height="14" rx="2"></rect><path d="M2 10h20"></path></symbol>
  <symbol id="i-cash" viewBox="0 0 24 24" fill="none" stroke="currentColor" stroke-width="1.8" stroke-linecap="round" stroke-linejoin="round"><rect x="2" y="6" width="20" height="12" rx="2"></rect><circle cx="12" cy="12" r="2.5"></circle></symbol>
  <symbol id="i-transfer" viewBox="0 0 24 24" fill="none" stroke="currentColor" stroke-width="1.8" stroke-linecap="round" stroke-linejoin="round"><path d="M17 3l4 4-4 4"></path><path d="M21 7H9"></path><path d="M7 21l-4-4 4-4"></path><path d="M3 17h12"></path></symbol>
  <symbol id="i-phone" viewBox="0 0 24 24" fill="none" stroke="currentColor" stroke-width="1.8" stroke-linecap="round" stroke-linejoin="round"><path d="M22 16.92v3a2 2 0 0 1-2.18 2 19.79 19.79 0 0 1-8.63-3.07 19.5 19.5 0 0 1-6-6A19.79 19.79 0 0 1 2.12 4.18 2 2 0 0 1 4.11 2h3a2 2 0 0 1 2 1.72c.13.96.36 1.9.7 2.81a2 2 0 0 1-.45 2.11L8.09 9.91a16 16 0 0 0 6 6l1.27-1.27a2 2 0 0 1 2.11-.45c.91.34 1.85.57 2.81.7A2 2 0 0 1 22 16.92z"></path></symbol>
  <symbol id="i-message" viewBox="0 0 24 24" fill="none" stroke="currentColor" stroke-width="1.8" stroke-linecap="round" stroke-linejoin="round"><path d="M21 11.5a8.38 8.38 0 0 1-.9 3.8 8.5 8.5 0 0 1-7.6 4.7 8.38 8.38 0 0 1-3.8-.9L3 21l1.9-5.7a8.38 8.38 0 0 1-.9-3.8 8.5 8.5 0 0 1 4.7-7.6 8.38 8.38 0 0 1 3.8-.9h.5a8.48 8.48 0 0 1 8 8v.5z"></path></symbol>
  <symbol id="i-mail" viewBox="0 0 24 24" fill="none" stroke="currentColor" stroke-width="1.8" stroke-linecap="round" stroke-linejoin="round"><path d="M4 4h16c1.1 0 2 .9 2 2v12c0 1.1-.9 2-2 2H4c-1.1 0-2-.9-2-2V6c0-1.1.9-2 2-2z"></path><path d="M22 6l-10 7L2 6"></path></symbol>
  <symbol id="i-eye" viewBox="0 0 24 24" fill="none" stroke="currentColor" stroke-width="1.8" stroke-linecap="round" stroke-linejoin="round"><path d="M1 12s4-8 11-8 11 8 11 8-4 8-11 8-11-8-11-8z"></path><circle cx="12" cy="12" r="3"></circle></symbol>
  <symbol id="i-check" viewBox="0 0 24 24" fill="none" stroke="currentColor" stroke-width="2.2" stroke-linecap="round" stroke-linejoin="round"><path d="M20 6L9 17l-5-5"></path></symbol>
  <symbol id="i-x" viewBox="0 0 24 24" fill="none" stroke="currentColor" stroke-width="2" stroke-linecap="round"><path d="M18 6L6 18"></path><path d="M6 6l12 12"></path></symbol>
  <symbol id="i-download" viewBox="0 0 24 24" fill="none" stroke="currentColor" stroke-width="1.8" stroke-linecap="round" stroke-linejoin="round"><path d="M21 15v4a2 2 0 0 1-2 2H5a2 2 0 0 1-2-2v-4"></path><path d="M7 10l5 5 5-5"></path><path d="M12 15V3"></path></symbol>
  <symbol id="i-plus" viewBox="0 0 24 24" fill="none" stroke="currentColor" stroke-width="2" stroke-linecap="round"><path d="M12 5v14"></path><path d="M5 12h14"></path></symbol>
  <symbol id="i-calendar" viewBox="0 0 24 24" fill="none" stroke="currentColor" stroke-width="1.8" stroke-linecap="round" stroke-linejoin="round"><rect x="3" y="4" width="18" height="18" rx="2"></rect><path d="M16 2v4"></path><path d="M8 2v4"></path><path d="M3 10h18"></path></symbol>
  <symbol id="i-calendar-plus" viewBox="0 0 24 24" fill="none" stroke="currentColor" stroke-width="1.8" stroke-linecap="round" stroke-linejoin="round"><rect x="3" y="4" width="18" height="18" rx="2"></rect><path d="M16 2v4"></path><path d="M8 2v4"></path><path d="M3 10h18"></path><path d="M12 14v4"></path><path d="M10 16h4"></path></symbol>
  <symbol id="i-sliders" viewBox="0 0 24 24" fill="none" stroke="currentColor" stroke-width="1.8" stroke-linecap="round"><path d="M4 21v-7"></path><path d="M4 10V3"></path><path d="M12 21v-9"></path><path d="M12 8V3"></path><path d="M20 21v-5"></path><path d="M20 12V3"></path><path d="M1 14h6"></path><path d="M9 8h6"></path><path d="M17 16h6"></path></symbol>
  <symbol id="i-alert" viewBox="0 0 24 24" fill="none" stroke="currentColor" stroke-width="1.8" stroke-linecap="round" stroke-linejoin="round"><path d="M10.29 3.86L1.82 18a2 2 0 0 0 1.71 3h16.94a2 2 0 0 0 1.71-3L13.71 3.86a2 2 0 0 0-3.42 0z"></path><path d="M12 9v4"></path><path d="M12 17h.01"></path></symbol>
  <symbol id="i-refresh" viewBox="0 0 24 24" fill="none" stroke="currentColor" stroke-width="1.8" stroke-linecap="round" stroke-linejoin="round"><path d="M23 4v6h-6"></path><path d="M1 20v-6h6"></path><path d="M3.51 9a9 9 0 0 1 14.85-3.36L23 10"></path><path d="M1 14l4.64 4.36A9 9 0 0 0 20.49 15"></path></symbol>
  <symbol id="i-refund" viewBox="0 0 24 24" fill="none" stroke="currentColor" stroke-width="1.8" stroke-linecap="round" stroke-linejoin="round"><path d="M1 4v6h6"></path><path d="M3.51 15a9 9 0 1 0 2.13-9.36L1 10"></path></symbol>
  <symbol id="i-chevron-right" viewBox="0 0 24 24" fill="none" stroke="currentColor" stroke-width="2" stroke-linecap="round" stroke-linejoin="round"><path d="M9 18l6-6-6-6"></path></symbol>
  <symbol id="i-trend-up" viewBox="0 0 24 24" fill="none" stroke="currentColor" stroke-width="2.4" stroke-linecap="round" stroke-linejoin="round"><path d="M7 17L17 7"></path><path d="M8 7h9v9"></path></symbol>
  <symbol id="i-trend-down" viewBox="0 0 24 24" fill="none" stroke="currentColor" stroke-width="2.4" stroke-linecap="round" stroke-linejoin="round"><path d="M17 7L7 17"></path><path d="M16 17H7V8"></path></symbol>
  <symbol id="i-clock" viewBox="0 0 24 24" fill="none" stroke="currentColor" stroke-width="1.8" stroke-linecap="round" stroke-linejoin="round"><circle cx="12" cy="12" r="10"></circle><path d="M12 6v6l4 2"></path></symbol>
  <symbol id="i-edit" viewBox="0 0 24 24" fill="none" stroke="currentColor" stroke-width="1.8" stroke-linecap="round" stroke-linejoin="round"><path d="M12 20h9"></path><path d="M16.5 3.5a2.12 2.12 0 0 1 3 3L7 19l-4 1 1-4L16.5 3.5z"></path></symbol>
  <symbol id="i-info" viewBox="0 0 24 24" fill="none" stroke="currentColor" stroke-width="1.8" stroke-linecap="round" stroke-linejoin="round"><circle cx="12" cy="12" r="10"></circle><path d="M12 16v-4"></path><path d="M12 8h.01"></path></symbol>
  <symbol id="i-block" viewBox="0 0 24 24" fill="none" stroke="currentColor" stroke-width="1.8" stroke-linecap="round" stroke-linejoin="round"><circle cx="12" cy="12" r="10"></circle><path d="M4.93 4.93l14.14 14.14"></path></symbol>
  <symbol id="i-inbox" viewBox="0 0 24 24" fill="none" stroke="currentColor" stroke-width="1.6" stroke-linecap="round" stroke-linejoin="round"><path d="M22 12h-6l-2 3h-4l-2-3H2"></path><path d="M5.45 5.11L2 12v6a2 2 0 0 0 2 2h16a2 2 0 0 0 2-2v-6l-3.45-6.89A2 2 0 0 0 16.76 4H7.24a2 2 0 0 0-1.79 1.11z"></path></symbol>
  <symbol id="i-package" viewBox="0 0 24 24" fill="none" stroke="currentColor" stroke-width="1.8" stroke-linecap="round" stroke-linejoin="round"><path d="M21 8v13H3V8"></path><path d="M1 3h22v5H1z"></path><path d="M10 12h4"></path></symbol>
  <symbol id="i-map-pin" viewBox="0 0 24 24" fill="none" stroke="currentColor" stroke-width="1.8" stroke-linecap="round" stroke-linejoin="round"><path d="M21 10c0 7-9 13-9 13S3 17 3 10a9 9 0 0 1 18 0z"></path><circle cx="12" cy="10" r="3"></circle></symbol>
  <symbol id="i-star" viewBox="0 0 24 24" stroke-linejoin="round"><path d="M12 2l3.09 6.26L22 9.27l-5 4.87 1.18 6.88L12 17.77l-6.18 3.25L7 14.14 2 9.27l6.91-1.01L12 2z"></path></symbol>
  <symbol id="i-check-square" viewBox="0 0 24 24" fill="none" stroke="currentColor" stroke-width="1.6" stroke-linecap="round" stroke-linejoin="round"><path d="M9 11l3 3L22 4"></path><path d="M21 12v7a2 2 0 0 1-2 2H5a2 2 0 0 1-2-2V5a2 2 0 0 1 2-2h11"></path></symbol>
  <symbol id="i-external" viewBox="0 0 24 24" fill="none" stroke="currentColor" stroke-width="1.8" stroke-linecap="round" stroke-linejoin="round"><path d="M18 13v6a2 2 0 0 1-2 2H5a2 2 0 0 1-2-2V8a2 2 0 0 1 2-2h6"></path><path d="M15 3h6v6"></path><path d="M10 14L21 3"></path></symbol>
  <symbol id="i-user" viewBox="0 0 24 24" fill="none" stroke="currentColor" stroke-width="1.8" stroke-linecap="round" stroke-linejoin="round"><path d="M20 21v-2a4 4 0 0 0-4-4H8a4 4 0 0 0-4 4v2"></path><circle cx="12" cy="7" r="4"></circle></symbol>
  <symbol id="i-users" viewBox="0 0 24 24" fill="none" stroke="currentColor" stroke-width="1.8" stroke-linecap="round" stroke-linejoin="round"><path d="M17 21v-2a4 4 0 0 0-4-4H5a4 4 0 0 0-4 4v2"></path><circle cx="9" cy="7" r="4"></circle><path d="M23 21v-2a4 4 0 0 0-3-3.87"></path><path d="M16 3.13a4 4 0 0 1 0 7.75"></path></symbol>
  <symbol id="i-bell" viewBox="0 0 24 24" fill="none" stroke="currentColor" stroke-width="1.8" stroke-linecap="round" stroke-linejoin="round"><path d="M18 8A6 6 0 0 0 6 8c0 7-3 9-3 9h18s-3-2-3-9"></path><path d="M13.73 21a2 2 0 0 1-3.46 0"></path></symbol>
  <symbol id="i-home" viewBox="0 0 24 24" fill="none" stroke="currentColor" stroke-width="1.8" stroke-linecap="round" stroke-linejoin="round"><path d="M3 9l9-7 9 7v11a2 2 0 0 1-2 2H5a2 2 0 0 1-2-2z"></path><path d="M9 22V12h6v10"></path></symbol>
  <symbol id="i-settings" viewBox="0 0 24 24" fill="none" stroke="currentColor" stroke-width="1.8" stroke-linecap="round" stroke-linejoin="round"><circle cx="12" cy="12" r="3"></circle><path d="M19.4 15a1.65 1.65 0 0 0 .33 1.82l.06.06a2 2 0 1 1-2.83 2.83l-.06-.06a1.65 1.65 0 0 0-1.82-.33 1.65 1.65 0 0 0-1 1.51V21a2 2 0 0 1-4 0v-.09A1.65 1.65 0 0 0 9 19.4a1.65 1.65 0 0 0-1.82.33l-.06.06a2 2 0 1 1-2.83-2.83l.06-.06a1.65 1.65 0 0 0 .33-1.82 1.65 1.65 0 0 0-1.51-1H3a2 2 0 0 1 0-4h.09A1.65 1.65 0 0 0 4.6 9a1.65 1.65 0 0 0-.33-1.82l-.06-.06a2 2 0 1 1 2.83-2.83l.06.06a1.65 1.65 0 0 0 1.82.33H9a1.65 1.65 0 0 0 1-1.51V3a2 2 0 0 1 4 0v.09a1.65 1.65 0 0 0 1 1.51 1.65 1.65 0 0 0 1.82-.33l.06-.06a2 2 0 1 1 2.83 2.83l-.06.06a1.65 1.65 0 0 0-.33 1.82V9a1.65 1.65 0 0 0 1.51 1H21a2 2 0 0 1 0 4h-.09a1.65 1.65 0 0 0-1.51 1z"></path></symbol>
  <symbol id="i-logout" viewBox="0 0 24 24" fill="none" stroke="currentColor" stroke-width="1.8" stroke-linecap="round" stroke-linejoin="round"><path d="M9 21H5a2 2 0 0 1-2-2V5a2 2 0 0 1 2-2h4"></path><path d="M16 17l5-5-5-5"></path><path d="M21 12H9"></path></symbol>
  <symbol id="i-more-h" viewBox="0 0 24 24" fill="none" stroke="currentColor" stroke-width="1.8" stroke-linecap="round"><circle cx="12" cy="12" r="1"></circle><circle cx="19" cy="12" r="1"></circle><circle cx="5" cy="12" r="1"></circle></symbol>
  <symbol id="i-trash" viewBox="0 0 24 24" fill="none" stroke="currentColor" stroke-width="1.8" stroke-linecap="round" stroke-linejoin="round"><path d="M3 6h18"></path><path d="M19 6v14a2 2 0 0 1-2 2H7a2 2 0 0 1-2-2V6m3 0V4a2 2 0 0 1 2-2h4a2 2 0 0 1 2 2v2"></path><path d="M10 11v6"></path><path d="M14 11v6"></path></symbol>
  <symbol id="i-upload" viewBox="0 0 24 24" fill="none" stroke="currentColor" stroke-width="1.8" stroke-linecap="round" stroke-linejoin="round"><path d="M21 15v4a2 2 0 0 1-2 2H5a2 2 0 0 1-2-2v-4"></path><path d="M17 8l-5-5-5 5"></path><path d="M12 3v12"></path></symbol>
  <symbol id="i-lock" viewBox="0 0 24 24" fill="none" stroke="currentColor" stroke-width="1.8" stroke-linecap="round" stroke-linejoin="round"><rect x="3" y="11" width="18" height="11" rx="2"></rect><path d="M7 11V7a5 5 0 0 1 10 0v4"></path></symbol>
  <symbol id="i-file-text" viewBox="0 0 24 24" fill="none" stroke="currentColor" stroke-width="1.8" stroke-linecap="round" stroke-linejoin="round"><path d="M14 2H6a2 2 0 0 0-2 2v16a2 2 0 0 0 2 2h12a2 2 0 0 0 2-2V8z"></path><path d="M14 2v6h6"></path><path d="M16 13H8"></path><path d="M16 17H8"></path><path d="M10 9H8"></path></symbol>
  <symbol id="i-bar-chart" viewBox="0 0 24 24" fill="none" stroke="currentColor" stroke-width="1.8" stroke-linecap="round" stroke-linejoin="round"><path d="M12 20V10"></path><path d="M18 20V4"></path><path d="M6 20v-4"></path></symbol>
  <symbol id="i-chevron-down" viewBox="0 0 24 24" fill="none" stroke="currentColor" stroke-width="2" stroke-linecap="round" stroke-linejoin="round"><path d="M6 9l6 6 6-6"></path></symbol>
  <symbol id="i-chevron-left" viewBox="0 0 24 24" fill="none" stroke="currentColor" stroke-width="2" stroke-linecap="round" stroke-linejoin="round"><path d="M15 18l-6-6 6-6"></path></symbol>
  <symbol id="i-arrow-right" viewBox="0 0 24 24" fill="none" stroke="currentColor" stroke-width="1.8" stroke-linecap="round" stroke-linejoin="round"><path d="M5 12h14"></path><path d="M12 5l7 7-7 7"></path></symbol>
  <symbol id="i-heart" viewBox="0 0 24 24" fill="none" stroke="currentColor" stroke-width="1.8" stroke-linecap="round" stroke-linejoin="round"><path d="M20.84 4.61a5.5 5.5 0 0 0-7.78 0L12 5.67l-1.06-1.06a5.5 5.5 0 0 0-7.78 7.78l1.06 1.06L12 21.23l7.78-7.78 1.06-1.06a5.5 5.5 0 0 0 0-7.78z"></path></symbol>
</svg>